<svg width="149" height="22" viewBox="0 0 149 22" fill="none" xmlns="http://www.w3.org/2000/svg">
<path d="M8.99175 3.65292H11V0.154917C10.6535 0.10725 9.46196 0 8.07424 0C5.17874 0 3.19523 1.82142 3.19523 5.16908V8.25H0V12.1605H3.19523V22H7.11274V12.1614H10.1787L10.6654 8.25092H7.11182V5.55683C7.11274 4.42658 7.41705 3.65292 8.99175 3.65292Z" fill="white"/>
<path d="M57 4.13092C56.1819 4.49231 55.3101 4.73185 54.4012 4.84815C55.3362 4.286 56.0499 3.40262 56.3854 2.33785C55.5136 2.86123 54.5511 3.23092 53.5254 3.43723C52.6976 2.54969 51.5179 2 50.2309 2C47.7339 2 45.7236 4.04092 45.7236 6.54292C45.7236 6.90292 45.7539 7.24908 45.8281 7.57862C42.0785 7.39446 38.7606 5.58477 36.5317 2.828C36.1426 3.50785 35.9144 4.286 35.9144 5.12369C35.9144 6.69662 36.7187 8.09092 37.9177 8.89815C37.1931 8.88431 36.4822 8.67246 35.88 8.33877C35.88 8.35262 35.88 8.37062 35.88 8.38862C35.88 10.5957 37.4434 12.4289 39.4935 12.8512C39.1264 12.9523 38.7262 13.0008 38.311 13.0008C38.0222 13.0008 37.7308 12.9842 37.4571 12.9232C38.0415 14.7218 39.6997 16.0442 41.6715 16.0871C40.137 17.2958 38.1886 18.0242 36.0794 18.0242C35.7095 18.0242 35.3547 18.0075 35 17.9618C36.9979 19.2592 39.3656 20 41.919 20C50.2185 20 54.756 13.0769 54.756 7.076C54.756 6.87523 54.7491 6.68139 54.7395 6.48892C55.6346 5.84923 56.3867 5.05031 57 4.13092Z" fill="white"/>
<path d="M102.901 21.9532V21.9523H102.907V13.9181C102.907 9.98773 102.06 6.96008 97.4655 6.96008C95.2566 6.96008 93.7743 8.17224 93.1691 9.32141H93.1052V7.32702H88.7486V21.9523H93.285V14.7104C93.285 12.8036 93.6465 10.9598 96.0078 10.9598C98.3344 10.9598 98.3691 13.1359 98.3691 14.8327V21.9532H102.901Z" fill="white"/>
<path d="M81.3615 7.32788H85.9034V21.9532H81.3615V7.32788Z" fill="white"/>
<path d="M83.6306 0.0467529C82.1784 0.0467529 81 1.22514 81 2.67735C81 4.12956 82.1784 5.33259 83.6306 5.33259C85.0828 5.33259 86.2612 4.12956 86.2612 2.67735C86.2603 1.22514 85.0819 0.0467529 83.6306 0.0467529V0.0467529Z" fill="white"/>
<path d="M148.71 6.49621C148.659 5.33451 148.471 4.53585 148.202 3.8438C147.925 3.10921 147.497 2.45153 146.938 1.9048C146.391 1.34956 145.729 0.918115 145.003 0.644832C144.307 0.375721 143.512 0.187861 142.351 0.136641C141.18 0.0810839 140.809 0.0682373 137.84 0.0682373C134.872 0.0682373 134.5 0.0810839 133.334 0.132303C132.173 0.183523 131.374 0.37155 130.682 0.640495C129.947 0.918115 129.29 1.34522 128.743 1.9048C128.188 2.45153 127.757 3.11355 127.483 3.83963C127.214 4.53585 127.026 5.33017 126.975 6.49187C126.919 7.66224 126.906 8.03379 126.906 11.0022C126.906 13.9706 126.919 14.3421 126.971 15.5082C127.022 16.6699 127.21 17.4685 127.479 18.1606C127.757 18.8952 128.188 19.5528 128.743 20.0996C129.29 20.6548 129.952 21.0863 130.678 21.3595C131.374 21.6287 132.168 21.8165 133.33 21.8677C134.496 21.9191 134.868 21.9318 137.836 21.9318C140.805 21.9318 141.176 21.9191 142.342 21.8677C143.504 21.8165 144.303 21.6287 144.994 21.3595C146.464 20.7915 147.626 19.6298 148.194 18.1606C148.463 17.4644 148.651 16.6699 148.702 15.5082C148.753 14.3421 148.766 13.9706 148.766 11.0022C148.766 8.03379 148.762 7.66224 148.71 6.49621ZM146.741 15.4228C146.694 16.4905 146.515 17.0671 146.366 17.4515C145.998 18.404 145.242 19.1599 144.29 19.5273C143.905 19.6768 143.325 19.8562 142.261 19.903C141.108 19.9544 140.762 19.9671 137.845 19.9671C134.928 19.9671 134.577 19.9544 133.428 19.903C132.361 19.8562 131.784 19.6768 131.4 19.5273C130.926 19.3521 130.494 19.0745 130.144 18.7115C129.781 18.3569 129.503 17.9298 129.328 17.4559C129.179 17.0715 128.999 16.4905 128.952 15.4271C128.901 14.2739 128.888 13.9279 128.888 11.0107C128.888 8.09352 128.901 7.74333 128.952 6.59447C128.999 5.5267 129.179 4.95011 129.328 4.56571C129.503 4.09156 129.781 3.66028 130.148 3.30992C130.503 2.94688 130.93 2.66926 131.404 2.49424C131.788 2.34475 132.369 2.1654 133.433 2.11835C134.586 2.06713 134.932 2.05429 137.849 2.05429C140.77 2.05429 141.116 2.06713 142.265 2.11835C143.333 2.1654 143.91 2.34475 144.294 2.49424C144.768 2.66926 145.2 2.94688 145.55 3.30992C145.913 3.66445 146.19 4.09156 146.366 4.56571C146.515 4.95011 146.694 5.53088 146.741 6.59447C146.793 7.74766 146.806 8.09352 146.806 11.0107C146.806 13.9279 146.793 14.2696 146.741 15.4228Z" fill="white"/>
<path d="M137.841 5.38574C134.74 5.38574 132.224 7.90134 132.224 11.0022C132.224 14.1031 134.74 16.6187 137.841 16.6187C140.941 16.6187 143.457 14.1031 143.457 11.0022C143.457 7.90134 140.941 5.38574 137.841 5.38574ZM137.841 14.6455C135.829 14.6455 134.197 13.0139 134.197 11.0022C134.197 8.99046 135.829 7.35895 137.841 7.35895C139.852 7.35895 141.484 8.99046 141.484 11.0022C141.484 13.0139 139.852 14.6455 137.841 14.6455Z" fill="white"/>
<path d="M144.99 5.16373C144.99 5.88781 144.403 6.47491 143.679 6.47491C142.955 6.47491 142.368 5.88781 142.368 5.16373C142.368 4.43948 142.955 3.85254 143.679 3.85254C144.403 3.85254 144.99 4.43948 144.99 5.16373Z" fill="white"/>
</svg>
