<svg width="135" height="48" viewBox="0 0 135 48" fill="none" xmlns="http://www.w3.org/2000/svg">
<path d="M2.5 12C10.5057 12 23 12 23 12L32 35.5L40.5 12L48.5 35.5C48.5 35.5 54.29 21.1773 58 12M65.5 12V35.5M74.5 35.5C74.5 26.3227 74.5 12 74.5 12L90 34.5V12" stroke="white" stroke-width="5" stroke-linecap="round" stroke-linejoin="round"/>
<circle cx="32.5" cy="44.5" r="3.5" fill="white"/>
<circle cx="49.5" cy="44.5" r="3.5" fill="white"/>
<circle cx="65.5" cy="3.5" r="3.5" fill="white"/>
<path d="M99.971 25.233C100.63 25.233 100.959 24.9417 100.959 24.359C100.959 24.1563 100.813 23.9663 100.522 23.789C100.243 23.6117 99.895 23.4343 99.477 23.257C99.0717 23.0797 98.66 22.8833 98.242 22.668C97.8367 22.44 97.4883 22.1297 97.197 21.737C96.9183 21.3443 96.779 20.8947 96.779 20.388C96.779 19.5393 97.1527 18.7983 97.9 18.165C98.6473 17.5317 99.5087 17.215 100.484 17.215C100.94 17.215 101.383 17.272 101.814 17.386C102.257 17.4873 102.682 17.652 103.087 17.88L101.814 20.198C101.725 20.122 101.611 20.027 101.472 19.913C101.333 19.799 101.067 19.6533 100.674 19.476C100.294 19.286 99.952 19.191 99.648 19.191C99.3567 19.191 99.1287 19.2607 98.964 19.4C98.812 19.5267 98.736 19.7103 98.736 19.951C98.736 20.179 98.9513 20.4133 99.382 20.654C99.8253 20.882 100.307 21.0973 100.826 21.3C101.345 21.49 101.82 21.813 102.251 22.269C102.694 22.7123 102.916 23.2443 102.916 23.865C102.916 24.7517 102.549 25.5307 101.814 26.202C101.092 26.8733 100.256 27.209 99.306 27.209C98.698 27.209 98.128 27.076 97.596 26.81C97.0767 26.544 96.703 26.278 96.475 26.012L96.133 25.613L97.634 23.865C97.71 23.9663 97.8177 24.093 97.957 24.245C98.0963 24.397 98.3687 24.5997 98.774 24.853C99.192 25.1063 99.591 25.233 99.971 25.233ZM105.321 17.804V15.733L107.886 15.239L107.639 17.804H109.938L109.729 19.362H107.563L107.468 23.333C107.468 23.9283 107.525 24.3273 107.639 24.53C107.753 24.72 107.962 24.815 108.266 24.815C108.57 24.815 108.975 24.7453 109.482 24.606L109.596 25.955C108.76 26.6517 108.025 27 107.392 27C106.758 27 106.239 26.772 105.834 26.316C105.428 25.8473 105.226 25.2393 105.226 24.492L105.34 22.364L105.321 19.362H104.01L104.219 17.804H105.321ZM110.763 23.029C110.763 21.4077 111.2 20.0333 112.074 18.906C112.948 17.7787 113.968 17.215 115.133 17.215C116.311 17.215 117.223 17.595 117.869 18.355C118.528 19.115 118.857 20.122 118.857 21.376C118.857 23.048 118.433 24.4413 117.584 25.556C116.748 26.658 115.691 27.209 114.411 27.209C113.36 27.209 112.486 26.8163 111.789 26.031C111.105 25.233 110.763 24.2323 110.763 23.029ZM116.729 22.364C116.729 20.5273 116.102 19.609 114.848 19.609C113.544 19.609 112.891 20.4703 112.891 22.193C112.891 23.0923 113.075 23.7953 113.442 24.302C113.81 24.8087 114.291 25.062 114.886 25.062C115.494 25.062 115.95 24.834 116.254 24.378C116.571 23.9093 116.729 23.238 116.729 22.364ZM120.29 17.823L122.589 17.329C122.703 18.3043 122.779 19.229 122.817 20.103C123.97 18.317 125.053 17.424 126.066 17.424L125.857 20.388C125.123 20.388 124.54 20.4577 124.109 20.597C123.691 20.7237 123.261 20.9833 122.817 21.376V22.06L123.026 26.525L120.48 27L120.708 22.383C120.658 20.6857 120.518 19.1657 120.29 17.823ZM130.692 25.062C131.059 25.062 131.446 24.967 131.851 24.777C132.256 24.587 132.573 24.397 132.801 24.207L133.143 23.922L134.017 24.986C133.89 25.2013 133.694 25.4483 133.428 25.727C133.162 26.0057 132.89 26.2463 132.611 26.449C132.345 26.639 131.984 26.8163 131.528 26.981C131.085 27.133 130.622 27.209 130.141 27.209C129.115 27.209 128.279 26.8227 127.633 26.05C126.987 25.2647 126.664 24.2577 126.664 23.029C126.664 21.4837 127.114 20.1283 128.013 18.963C128.912 17.7977 129.964 17.215 131.167 17.215C132.092 17.215 132.807 17.4747 133.314 17.994C133.833 18.5133 134.093 19.2417 134.093 20.179C134.093 20.7363 133.998 21.3697 133.808 22.079L133.428 22.478L128.678 22.915C128.893 24.3463 129.565 25.062 130.692 25.062ZM130.692 19.172C130.135 19.172 129.666 19.4 129.286 19.856C128.906 20.2993 128.684 20.8693 128.621 21.566L131.851 21.167C131.889 20.8757 131.908 20.635 131.908 20.445C131.908 19.5963 131.503 19.172 130.692 19.172Z" fill="white"/>
</svg>
