<svg width="19" height="19" viewBox="0 0 19 19" fill="none" xmlns="http://www.w3.org/2000/svg">
<path d="M1.72727 10.1218V8.88064C1.72727 4.5947 5.21412 1.10791 9.5 1.10791C13.7859 1.10791 17.2727 4.5947 17.2727 8.88064V10.1218C18.3208 10.9104 19 12.1644 19 13.574C19 15.955 17.0629 17.8922 14.6818 17.8922C14.2049 17.8922 13.8182 17.5055 13.8182 17.0285V10.1194C13.8182 9.64248 14.2049 9.2558 14.6818 9.2558C14.9775 9.2558 15.2663 9.2858 15.5455 9.34274V8.88069C15.5455 5.54723 12.8335 2.83524 9.5 2.83524C6.16654 2.83524 3.45455 5.54723 3.45455 8.88069V9.34274C3.73367 9.2858 4.02247 9.2558 4.31818 9.2558C4.79514 9.2558 5.18182 9.64248 5.18182 10.1194V17.0285C5.18182 17.5055 4.79514 17.8922 4.31818 17.8922C1.93714 17.8922 0 15.955 0 13.574C0 12.1643 0.679163 10.9104 1.72727 10.1218Z" fill="white"/>
</svg>
